<svg width="51" height="41" viewBox="0 0 51 41" fill="none" xmlns="http://www.w3.org/2000/svg">
<path d="M12.2188 7.76562C15.7344 5.10938 20.1094 3 25.5 3C31.75 3 36.8281 5.89062 40.5 9.32812C44.1719 12.6875 46.5938 16.75 47.7656 19.5625C48 20.1875 48 20.8906 47.7656 21.5156C46.75 24.0156 44.6406 27.6094 41.5156 30.7344L49.7188 37.2188C50.5781 37.8438 50.7344 39.0156 50.0312 39.7969C49.4062 40.6562 48.2344 40.8125 47.4531 40.1094L1.20312 3.85938C0.34375 3.23438 0.1875 2.0625 0.890625 1.28125C1.51562 0.421875 2.6875 0.265625 3.46875 0.96875L12.2188 7.76562ZM15.2656 10.1875L18.8594 13C20.6562 11.4375 22.9219 10.5 25.5 10.5C30.9688 10.5 35.5 15.0312 35.5 20.5C35.5 22.2188 35.0312 23.7812 34.3281 25.1094L38.5469 28.3906C41.2031 25.7344 43.0781 22.6875 44.0938 20.5C43 18.1562 40.9688 14.875 37.9219 12.0625C34.7188 9.09375 30.5781 6.75 25.5 6.75C21.5156 6.75 18.0781 8.15625 15.2656 10.1875ZM31.2812 22.7656C31.5938 22.0625 31.75 21.2812 31.75 20.5C31.75 17.0625 28.9375 14.25 25.5 14.25C25.4219 14.25 25.3438 14.25 25.2656 14.25C25.4219 14.7188 25.5 15.1094 25.5 15.5C25.5 16.3594 25.2656 17.0625 24.9531 17.7656L31.2812 22.7656ZM32.0625 32.9219L35.3438 35.5C32.4531 37.0625 29.1719 38 25.5 38C19.1719 38 14.0938 35.1875 10.4219 31.75C6.75 28.3125 4.32812 24.25 3.15625 21.5156C2.92188 20.8906 2.92188 20.1875 3.15625 19.5625C3.9375 17.7656 5.1875 15.5 6.98438 13.1562L9.875 15.5C8.46875 17.2969 7.45312 19.0938 6.82812 20.5C7.92188 22.8438 9.95312 26.2031 13 29.0156C16.2031 31.9844 20.3438 34.25 25.5 34.25C27.8438 34.25 30.0312 33.7812 32.0625 32.9219ZM15.5 20.5C15.5 20.3438 15.5 20.1094 15.5 19.875L19.875 23.3125C20.6562 24.9531 22.2188 26.2031 24.0938 26.5938L28.4688 30.1094C27.5312 30.3438 26.5156 30.5 25.4219 30.5C19.9531 30.5 15.4219 26.0469 15.4219 20.5H15.5Z" fill="white"/>
</svg>
