<svg width="35" height="29" viewBox="0 0 35 29" fill="none" xmlns="http://www.w3.org/2000/svg">
<path d="M19.6726 0.524414C19.3601 0.399414 19.1101 0.336914 18.8601 0.336914C18.3601 0.336914 17.8601 0.524414 17.4851 0.899414L9.04761 8.33691H3.86011C2.17261 8.33691 0.860107 9.71191 0.860107 11.3369V17.2744C0.860107 18.8994 2.17261 20.2119 3.86011 20.2119H9.04761L17.4851 27.7119C17.8601 28.2119 18.3601 28.3369 18.8601 28.3369C19.1101 28.3369 19.3601 28.3369 19.6726 28.2119C20.3601 27.8369 20.8601 27.1494 20.8601 26.3369V2.33691C20.8601 1.58691 20.3601 0.836914 19.6726 0.524414ZM17.8601 24.1494L10.2351 17.3369H3.86011V11.3994H10.2351L17.8601 4.58691V24.1494ZM26.6101 9.71191C26.3601 9.52441 25.9851 9.39941 25.6726 9.39941C25.2351 9.39941 24.7976 9.58691 24.4851 9.96191C23.9851 10.5869 24.0476 11.5244 24.7351 12.0869C25.4226 12.6494 25.8601 13.4619 25.8601 14.3369C25.8601 15.2744 25.4226 16.0869 24.7351 16.6494C24.0476 17.2119 23.9851 18.1494 24.4851 18.7744C24.7976 19.1494 25.2351 19.3369 25.6726 19.3369C25.9851 19.3369 26.3601 19.2119 26.6101 19.0244C28.0476 17.8369 28.8601 16.1494 28.8601 14.3369C28.8601 12.5869 28.0476 10.8994 26.6101 9.71191ZM30.4226 5.08691C30.1101 4.89941 29.7976 4.77441 29.4226 4.77441C28.9851 4.77441 28.6101 4.96191 28.2976 5.33691C27.7351 5.96191 27.8601 6.89941 28.4851 7.46191C30.6101 9.14941 31.8601 11.7119 31.8601 14.3369C31.8601 17.0244 30.6101 19.5869 28.4851 21.2744C27.8601 21.8369 27.7351 22.7744 28.2976 23.3994C28.6101 23.7744 28.9851 23.9619 29.4226 23.9619C29.7976 23.9619 30.1101 23.8369 30.4226 23.6494C33.2351 21.3369 34.8601 17.9619 34.8601 14.3369C34.8601 10.7744 33.2351 7.39941 30.4226 5.08691Z" fill="white"/>
</svg>