<svg width="71" height="71" viewBox="0 0 71 71" fill="none" xmlns="http://www.w3.org/2000/svg">
<circle cx="35.4905" cy="35.1857" r="35.1048" fill="white"/>
<path d="M19.6672 30.2764C19.6672 33.2325 17.2629 35.5974 14.3069 35.5974H11.1537C9.30122 35.5974 7.68523 34.4544 7.09401 32.6807C6.89694 32.0107 7.25167 31.3012 7.8823 31.1041C8.55234 30.8677 9.26181 31.2224 9.49829 31.8924C9.73478 32.6019 10.4048 33.0749 11.1537 33.0749H14.3069C15.8834 33.0749 17.1447 31.8136 17.1447 30.2764C17.1447 28.7393 15.8834 27.478 14.3069 27.478H8.31586C7.92171 27.478 7.56698 27.3204 7.3305 27.005C7.09401 26.7291 6.97576 26.335 7.05459 25.9803L8.31586 19.0039C8.4341 18.4127 8.94649 17.9791 9.57712 17.9791H17.1447C17.8147 17.9791 18.406 18.5309 18.406 19.2404C18.406 19.9104 17.8147 20.5017 17.1447 20.5017H10.6019L9.81361 24.9555H14.3069C17.2629 24.9555 19.6672 27.3204 19.6672 30.2764Z" fill="#CB1A72"/>
<path d="M25.9735 17.9791C22.4657 17.9791 19.6672 20.7776 19.6672 24.2854V29.2911C19.6672 32.7596 22.4657 35.5974 25.9735 35.5974C29.442 35.5974 32.2799 32.7596 32.2799 29.2911V24.246C32.2799 20.7776 29.442 17.9791 25.9735 17.9791ZM29.7573 29.2911C29.7573 31.38 28.0231 33.0749 25.9735 33.0749C23.8846 33.0749 22.1898 31.38 22.1898 29.2911V24.246C22.1898 22.1965 23.8846 20.4622 25.9735 20.4622C28.0231 20.4622 29.7573 22.1965 29.7573 24.246V29.2911Z" fill="#CB1A72"/>
<path d="M28.9939 45.9634C28.7969 45.9634 28.5998 45.924 28.4027 45.8057C27.7721 45.4904 27.575 44.7021 27.9297 44.1109L38.0198 26.4532C38.3352 25.8226 39.1235 25.6255 39.7147 25.9803C40.3453 26.2956 40.5424 27.0839 40.1876 27.6751L30.0975 45.3328C29.861 45.7663 29.4669 45.9634 28.9939 45.9634Z" fill="#CB1A72"/>
<path d="M51.3377 47.0714C51.3377 50.0274 48.9335 52.3923 45.9774 52.3923H42.8242C40.9717 52.3923 39.3557 51.2493 38.7645 49.4756C38.5675 48.8056 38.9222 48.0961 39.5528 47.8991C40.2229 47.6626 40.9323 48.0173 41.1688 48.6873C41.4053 49.3968 42.0753 49.8698 42.8242 49.8698H45.9774C47.554 49.8698 48.8152 48.6085 48.8152 47.0714C48.8152 45.5342 47.554 44.2729 45.9774 44.2729H39.9864C39.5922 44.2729 39.2375 44.1153 39.001 43.7999C38.7645 43.524 38.6463 43.1299 38.7251 42.7752L39.9864 35.7988C40.1046 35.2076 40.617 34.774 41.2476 34.774H48.8152C49.4853 34.774 50.0765 35.3258 50.0765 36.0353C50.0765 36.7053 49.4853 37.2966 48.8152 37.2966H42.2724L41.4841 41.7504H45.9774C48.9335 41.7504 51.3377 44.1153 51.3377 47.0714Z" fill="#CB1A72"/>
<path d="M57.6441 34.774C54.1362 34.774 51.3377 37.5725 51.3377 41.0803V46.086C51.3377 49.5545 54.1362 52.3923 57.6441 52.3923C61.1125 52.3923 63.9504 49.5545 63.9504 46.086V41.0409C63.9504 37.5725 61.1125 34.774 57.6441 34.774ZM61.4278 46.086C61.4278 48.175 59.6936 49.8698 57.6441 49.8698C55.5551 49.8698 53.8603 48.175 53.8603 46.086V41.0409C53.8603 38.9914 55.5551 37.2571 57.6441 37.2571C59.6936 37.2571 61.4278 38.9914 61.4278 41.0409V46.086Z" fill="#CB1A72"/>
</svg>
