<svg width="71" height="71" viewBox="0 0 71 71" fill="none" xmlns="http://www.w3.org/2000/svg">
<path d="M0.385742 35.3952C0.385742 54.7831 16.1027 70.5 35.4905 70.5L40.1038 35.3952L35.4905 0.290466C16.1027 0.290466 0.385742 16.0074 0.385742 35.3952Z" fill="white"/>
<path d="M35.4907 0.290466V70.5C54.8786 70.5 70.5955 54.7831 70.5955 35.3952C70.5955 16.0074 54.8786 0.290466 35.4907 0.290466Z" fill="white"/>
<path d="M52.5124 36.1386L46.3988 31.9094L38.9721 32.2328L41.105 25.1116L38.5024 18.1484L45.9342 17.9764L51.7524 13.3494L54.2125 20.3642L60.411 24.4679L54.4997 28.9753L52.5124 36.1386Z" fill="#CB1A72"/>
<path d="M18.4694 36.1386L16.4821 28.9755L10.5708 24.4681L16.7693 20.3644L19.2293 13.3496L25.0475 17.9766L32.4793 18.1485L29.8768 25.1118L32.0097 32.233L24.5829 31.9096L18.4694 36.1386Z" fill="#CB1A72"/>
<path d="M16.436 41.6698V43.7267C16.436 45.7373 16.7501 47.6757 17.33 49.4967L35.4905 56.139L38.9418 45.8296L35.4905 41.6698H16.436Z" fill="#CB1A72"/>
<path d="M35.4907 41.6698V56.139L53.6513 49.4968C54.2312 47.6759 54.5452 45.7374 54.5452 43.7269V41.6699H35.4907V41.6698Z" fill="#CB1A72"/>
<path d="M17.3301 49.4967C19.7804 57.1914 26.9946 62.7812 35.4906 62.7812L38.9419 56.139L35.4906 49.4967H17.3301Z" fill="#CB1A72"/>
<path d="M35.4907 49.4967V62.7812C43.9868 62.7812 51.2011 57.1914 53.6513 49.4967H35.4907Z" fill="#CB1A72"/>
</svg>
