<svg width="40" height="40" viewBox="0 0 40 40" fill="none" xmlns="http://www.w3.org/2000/svg">
    <g clip-path="url(#clip0_305_9)">
        <path d="M39.4062 33.365L33.9062 28.99C36.4687 26.6775 38.0312 23.4275 38.0312 19.99C38.0312 16.4275 36.4062 13.0525 33.5937 10.8025C33.2812 10.615 32.9687 10.49 32.5937 10.49C32.1562 10.49 31.7812 10.6775 31.4687 11.0525C30.9062 11.6775 31.0312 12.615 31.6562 13.1775C33.7812 14.8025 35.0312 17.365 35.0312 19.99C35.0312 22.6775 33.7812 25.24 31.6562 26.9275C31.5937 26.99 31.5937 27.0525 31.5312 27.115L28.7187 24.99C28.7812 24.99 28.7812 24.99 28.8437 24.99C29.1562 24.99 29.5312 24.865 29.7812 24.6775C31.2187 23.49 32.0312 21.8025 32.0312 19.99C32.0312 18.24 31.2187 16.5525 29.7812 15.365C29.5312 15.1775 29.1562 15.0525 28.8437 15.0525C28.4062 15.0525 27.9687 15.24 27.6562 15.615C27.1562 16.24 27.2187 17.1775 27.9062 17.74C28.5937 18.3025 29.0312 19.115 29.0312 19.99C29.0312 20.9275 28.5937 21.74 27.9062 22.3025C27.4062 22.74 27.2187 23.365 27.4062 23.9275L24.0312 21.24V7.98999C24.0312 7.23999 23.5312 6.48999 22.8437 6.17749C22.5312 6.05249 22.2812 5.98999 22.0312 5.98999C21.5312 5.98999 21.0312 6.17749 20.6562 6.55249L13.4062 12.99L2.40625 4.36499C1.78125 3.80249 0.843747 3.92749 0.343747 4.61499C-0.218753 5.23999 -0.0937533 6.17749 0.593747 6.67749L37.5312 35.615C37.8437 35.9275 38.1562 35.99 38.4687 35.99C38.9062 35.99 39.3437 35.8025 39.6562 35.4275C40.2187 34.8025 40.0937 33.865 39.4062 33.365ZM21.0312 18.865L15.8437 14.865L21.0312 10.24V18.865ZM21.0312 29.8025L13.4062 22.99H7.03125V17.0525H8.90625L5.53125 14.4275C4.65625 14.9275 4.03125 15.865 4.03125 16.99V22.99C4.03125 24.6775 5.34375 25.99 7.03125 25.99H12.2187L20.6562 33.4275C21.0312 33.865 21.5312 33.99 22.0312 33.99C22.2812 33.99 22.5312 33.99 22.8437 33.865C23.5312 33.49 24.0312 32.8025 24.0312 31.99V28.865L21.0312 26.5525V29.8025Z" fill="white" />
    </g>
    <defs>
        <clipPath id="clip0_305_9">
            <rect width="40" height="40" fill="white" />
        </clipPath>
    </defs>
</svg>
    